<mxfile host="app.diagrams.net" modified="2024-04-11T04:07:03.786Z" agent="Mozilla/5.0 (Macintosh; Intel Mac OS X 10_15_7) AppleWebKit/537.36 (KHTML, like Gecko) Chrome/123.0.0.0 Safari/537.36" version="24.2.3" etag="5VCegYX5aZiakp4p0kkn" type="github">
  <diagram name="第 1 页" id="hL7lgHcb_5edd5JF82dh">
    <mxGraphModel>
      <root>
        <mxCell id="0" />
        <mxCell id="1" parent="0" />
      </root>
    </mxGraphModel>
  </diagram>
</mxfile>
